<svg width="1979" height="1115" viewBox="0 0 1979 1115" fill="none" xmlns="http://www.w3.org/2000/svg">
<g filter="url(#filter0_d_26_3)">
<path d="M1236.22 480.264L900.937 687.556L925.013 330.551L1236.22 480.264Z" fill="url(#paint0_linear_26_3)"/>
<path d="M1027.88 637.43L903.726 689.652L1238.35 482.379L1027.88 637.43Z" fill="url(#paint1_linear_26_3)"/>
<path d="M1033.21 352.363L928.241 331.051L1240.48 479.178L1033.21 352.363Z" fill="url(#paint2_linear_26_3)"/>
<path d="M211.084 567.251L360.153 550.551L354.651 609.394L206.025 626.044L211.084 567.251ZM201.852 740.724L129.75 748.802L156.99 432.224L390.989 406.01L385.488 464.853L223.591 482.989L201.852 740.724Z" fill="url(#paint3_linear_26_3)"/>
<path d="M412.141 717.166L439.126 403.557L510.551 395.555L483.566 709.165L412.141 717.166Z" fill="url(#paint4_linear_26_3)"/>
<path d="M555.923 701.059L582.908 387.45L641.626 380.872L798.411 588.261L775.039 589.548L794.118 363.789L864.229 355.934L837.244 669.544L778.964 676.073L621.741 468.732L645.551 467.396L626.034 693.205L555.923 701.059Z" fill="url(#paint5_linear_26_3)"/>
<mask id="mask0_26_3" style="mask-type:alpha" maskUnits="userSpaceOnUse" x="1374" y="286" width="413" height="355">
<path d="M1374.75 640.03L1406.17 323.841L1478.38 316.718L1446.95 632.908L1374.75 640.03Z" fill="white"/>
<path d="M1584.32 619.356L1609.56 362.817L1510.33 372.605L1516.53 312.955L1786.73 286.3L1780.54 345.95L1681.76 355.695L1656.08 612.277L1584.32 619.356Z" fill="white"/>
</mask>
<g mask="url(#mask0_26_3)">
<ellipse cx="1515.95" cy="407.247" rx="319.169" ry="319.169" fill="#FEC437"/>
</g>
<path d="M1255.93 485.041C2020.55 724.287 2232.62 399.79 1432.83 279.901C1590.55 323.593 2248.6 577.757 1255.93 485.041Z" fill="url(#paint6_linear_26_3)"/>
<path d="M1242.6 487.72C1300.69 791.437 428.43 989.641 39.46 716.829C122.578 1042.39 1502.09 1101.01 1242.6 487.72Z" fill="url(#paint7_linear_26_3)"/>
<path d="M1596.41 504.758L1610.38 362.812L1511.15 372.6L1517.35 312.95L1787.55 286.294L1781.36 345.945L1682.58 355.689L1667.28 504.757L1596.41 504.758Z" fill="#FEC437"/>
<path d="M1245.8 479.185C1352.37 217.298 651.163 112.592 474.79 325.728C499.837 -5.16498 1457.88 16.4176 1245.8 479.185Z" fill="url(#paint8_linear_26_3)"/>
</g>
<defs>
<filter id="filter0_d_26_3" x="32.96" y="82.6997" width="1945.53" height="901.088" filterUnits="userSpaceOnUse" color-interpolation-filters="sRGB">
<feFlood flood-opacity="0" result="BackgroundImageFix"/>
<feColorMatrix in="SourceAlpha" type="matrix" values="0 0 0 0 0 0 0 0 0 0 0 0 0 0 0 0 0 0 127 0" result="hardAlpha"/>
<feOffset dx="16" dy="4"/>
<feGaussianBlur stdDeviation="11.25"/>
<feComposite in2="hardAlpha" operator="out"/>
<feColorMatrix type="matrix" values="0 0 0 0 0.272374 0 0 0 0 0.340211 0 0 0 0 0.472115 0 0 0 1 0"/>
<feBlend mode="normal" in2="BackgroundImageFix" result="effect1_dropShadow_26_3"/>
<feBlend mode="normal" in="SourceGraphic" in2="effect1_dropShadow_26_3" result="shape"/>
</filter>
<linearGradient id="paint0_linear_26_3" x1="1355.59" y1="576.172" x2="653.325" y2="636.002" gradientUnits="userSpaceOnUse">
<stop offset="0.240473" stop-color="#F1F1F1"/>
<stop offset="0.980519" stop-color="#0037A1"/>
</linearGradient>
<linearGradient id="paint1_linear_26_3" x1="1071.04" y1="482.379" x2="903.726" y2="678.458" gradientUnits="userSpaceOnUse">
<stop stop-color="#D9D9D9"/>
<stop offset="1" stop-color="#5174B6"/>
</linearGradient>
<linearGradient id="paint2_linear_26_3" x1="1249" y1="453.602" x2="957.01" y2="296.415" gradientUnits="userSpaceOnUse">
<stop stop-color="#D9D9D9"/>
<stop offset="1" stop-color="#5B7BB9"/>
</linearGradient>
<linearGradient id="paint3_linear_26_3" x1="-145.035" y1="601.49" x2="905.049" y2="546.531" gradientUnits="userSpaceOnUse">
<stop stop-color="white"/>
<stop offset="1" stop-color="#5E7EBC"/>
</linearGradient>
<linearGradient id="paint4_linear_26_3" x1="-145.035" y1="601.49" x2="905.049" y2="546.531" gradientUnits="userSpaceOnUse">
<stop stop-color="white"/>
<stop offset="1" stop-color="#5E7EBC"/>
</linearGradient>
<linearGradient id="paint5_linear_26_3" x1="-145.035" y1="601.49" x2="1005" y2="529.222" gradientUnits="userSpaceOnUse">
<stop stop-color="white"/>
<stop offset="1" stop-color="#5E7EBC"/>
</linearGradient>
<linearGradient id="paint6_linear_26_3" x1="1580.03" y1="570.259" x2="1829.23" y2="398.561" gradientUnits="userSpaceOnUse">
<stop stop-color="#F1F1F1"/>
<stop offset="1" stop-color="#6885BC"/>
</linearGradient>
<linearGradient id="paint7_linear_26_3" x1="1140.51" y1="555.317" x2="16.548" y2="693.917" gradientUnits="userSpaceOnUse">
<stop stop-color="#F1F1F1"/>
<stop offset="0.827226" stop-color="#FEC437"/>
</linearGradient>
<linearGradient id="paint8_linear_26_3" x1="1216.46" y1="342.404" x2="493.968" y2="275.641" gradientUnits="userSpaceOnUse">
<stop stop-color="#F1F1F1"/>
<stop offset="0.628751" stop-color="#EEFF59"/>
</linearGradient>
</defs>
</svg>
